<?xml version="1.0" encoding="UTF-8" standalone="no"?>
<!-- Created with Inkscape (http://www.inkscape.org/) -->
<svg
   xmlns:dc="http://purl.org/dc/elements/1.1/"
   xmlns:cc="http://creativecommons.org/ns#"
   xmlns:rdf="http://www.w3.org/1999/02/22-rdf-syntax-ns#"
   xmlns:svg="http://www.w3.org/2000/svg"
   xmlns="http://www.w3.org/2000/svg"
   xmlns:sodipodi="http://sodipodi.sourceforge.net/DTD/sodipodi-0.dtd"
   xmlns:inkscape="http://www.inkscape.org/namespaces/inkscape"
   width="48"
   height="48"
   id="svg2"
   sodipodi:version="0.32"
   inkscape:version="0.46"
   sodipodi:docname="vcard_icon.svg"
   inkscape:output_extension="org.inkscape.output.svg.inkscape"
   version="1.0"
   inkscape:export-filename="../drawable/icon.png"
   inkscape:export-xdpi="90"
   inkscape:export-ydpi="90">
  <sodipodi:namedview
     id="base"
     pagecolor="#ffffff"
     bordercolor="#666666"
     borderopacity="1.0"
     gridtolerance="10000"
     guidetolerance="10"
     objecttolerance="10"
     inkscape:pageopacity="0.0"
     inkscape:pageshadow="2"
     inkscape:zoom="13.561871"
     inkscape:cx="26.811669"
     inkscape:cy="25.691069"
     inkscape:document-units="px"
     inkscape:current-layer="g5188"
     showgrid="false"
     inkscape:window-width="1920"
     inkscape:window-height="1124"
     inkscape:window-x="0"
     inkscape:window-y="0"
     showguides="true"
     inkscape:guide-bbox="true">
    <sodipodi:guide
       orientation="0,1"
       position="-68.500873,1"
       id="guide5467" />
    <sodipodi:guide
       orientation="0,1"
       position="21.530952,47"
       id="guide3539" />
    <sodipodi:guide
       orientation="1,0"
       position="1,19.466341"
       id="guide3541" />
    <sodipodi:guide
       orientation="1,0"
       position="47,46.453767"
       id="guide3543" />
  </sodipodi:namedview>
  <defs
     id="defs4">
    <marker
       style="overflow:visible"
       id="Arrow1Send"
       refX="0"
       refY="0"
       orient="auto"
       inkscape:stockid="Arrow1Send">
      <path
         transform="matrix(-0.2,0,0,-0.2,-1.2,0)"
         style="fill-rule:evenodd;stroke:#000000;stroke-width:1pt;marker-start:none"
         d="M 0,0 L 5,-5 L -12.5,0 L 5,5 L 0,0 z"
         id="path3227" />
    </marker>
    <marker
       style="overflow:visible"
       id="Arrow2Mend"
       refX="0"
       refY="0"
       orient="auto"
       inkscape:stockid="Arrow2Mend">
      <path
         transform="scale(-0.6,-0.6)"
         d="M 8.7185878,4.0337352 L -2.2072895,0.016013256 L 8.7185884,-4.0017078 C 6.97309,-1.6296469 6.9831476,1.6157441 8.7185878,4.0337352 z"
         style="font-size:12px;fill-rule:evenodd;stroke-width:0.625;stroke-linejoin:round"
         id="path3239" />
    </marker>
    <inkscape:perspective
       id="perspective10"
       inkscape:persp3d-origin="372.04724 : 350.78739 : 1"
       inkscape:vp_z="744.09448 : 526.18109 : 1"
       inkscape:vp_y="0 : 1000 : 0"
       inkscape:vp_x="0 : 526.18109 : 1"
       sodipodi:type="inkscape:persp3d" />
    <inkscape:perspective
       sodipodi:type="inkscape:persp3d"
       inkscape:vp_x="0 : 526.18109 : 1"
       inkscape:vp_y="0 : 1000 : 0"
       inkscape:vp_z="744.09448 : 526.18109 : 1"
       inkscape:persp3d-origin="372.04724 : 350.78739 : 1"
       id="perspective2427" />
    <marker
       style="overflow:visible"
       id="Arrow1SendN"
       refX="0"
       refY="0"
       orient="auto"
       inkscape:stockid="Arrow1SendN">
      <path
         transform="matrix(-0.2,0,0,-0.2,-1.2,0)"
         style="fill:#666666;fill-rule:evenodd;stroke:#666666;stroke-width:1pt;marker-start:none"
         d="M 0,0 L 5,-5 L -12.5,0 L 5,5 L 0,0 z"
         id="path4230" />
    </marker>
    <marker
       style="overflow:visible"
       id="Arrow1SendNk"
       refX="0"
       refY="0"
       orient="auto"
       inkscape:stockid="Arrow1SendNk">
      <path
         transform="matrix(-0.2,0,0,-0.2,-1.2,0)"
         style="fill:#000000;fill-rule:evenodd;stroke:#000000;stroke-width:1pt;marker-start:none"
         d="M 0,0 L 5,-5 L -12.5,0 L 5,5 L 0,0 z"
         id="path4317" />
    </marker>
    <inkscape:perspective
       id="perspective5138"
       inkscape:persp3d-origin="372.04724 : 350.78739 : 1"
       inkscape:vp_z="744.09448 : 526.18109 : 1"
       inkscape:vp_y="0 : 1000 : 0"
       inkscape:vp_x="0 : 526.18109 : 1"
       sodipodi:type="inkscape:persp3d" />
    <clipPath
       clipPathUnits="userSpaceOnUse"
       id="clipPath3545">
      <path
         style="fill:none;stroke:#000000;stroke-width:0.09979744;stroke-miterlimit:4;stroke-dasharray:none"
         d="M 6.887818,6.5396173 C 3.2262293,6.5396173 0.25853714,9.519397 0.25853714,13.195897 L 0.25853714,46.071042 C 0.25853714,49.747542 3.2262293,52.727321 6.887818,52.727321 L 39.629618,52.727321 C 43.291206,52.727321 46.258894,49.747543 46.258894,46.071042 L 46.258894,32.227231 L 46.258894,13.195897 L 46.258894,6.5396173 L 39.629618,6.5396173 L 8.6307273,6.5396173 L 6.887818,6.5396173 z"
         id="path3547" />
    </clipPath>
    <filter
       inkscape:collect="always"
       id="filter3715">
      <feGaussianBlur
         inkscape:collect="always"
         stdDeviation="0.68999663"
         id="feGaussianBlur3717" />
    </filter>
  </defs>
  <metadata
     id="metadata7">
    <rdf:RDF>
      <cc:Work
         rdf:about="">
        <dc:format>image/svg+xml</dc:format>
        <dc:type
           rdf:resource="http://purl.org/dc/dcmitype/StillImage" />
      </cc:Work>
    </rdf:RDF>
  </metadata>
  <g
     id="layer1"
     inkscape:groupmode="layer"
     inkscape:label="Layer 1">
    <g
       id="g5188"
       transform="translate(0.7408356,-5.5394393)">
      <path
         style="opacity:0.98999999;fill:#000000;fill-opacity:1;stroke:none;stroke-width:1.75100005;stroke-linejoin:round;stroke-miterlimit:4;stroke-dasharray:none;filter:url(#filter3715)"
         d="M 5.8185568,6.5394393 L 5.8185568,6.9104071 L 5.9773965,6.8176651 L 17.477396,32.538095 L 19.542313,27.344547 L 23.195628,52.539439 L 23.418004,52.539439 L 28.977397,52.539439 L 40.540932,26.849923 L 42.60585,32.012557 L 46.259164,6.8176651 L 29.644523,26.324385 L 34.918004,24.314977 L 23.418004,49.942665 L 23.418004,6.5394393 L 5.8185568,6.5394393 z M 23.195628,52.539439 L 6.5809878,33.063633 L 11.918004,35.073041 L 0.25916439,9.1980409 L 0.25916439,52.539439 L 23.195628,52.539439 z M 0.25916439,9.1980409 L 0.41800418,9.136213 L 0.25916439,9.136213 L 0.25916439,9.1980409 z M 30.184578,7.1577189 C 29.16434,7.1577326 28.230397,7.4784649 27.357231,8.116052 C 26.484057,8.7472244 25.779852,9.5999345 25.260546,10.681912 C 24.741237,11.763911 24.466346,12.925761 24.466347,14.175191 C 24.466346,15.115498 24.61238,16.032612 24.911099,16.895621 C 25.214408,17.75864 25.644124,18.501864 26.181816,19.152343 C 26.719503,19.796384 27.352989,20.312905 28.056125,20.667127 C 28.763849,21.02135 29.512004,21.192665 30.311651,21.192665 C 31.359448,21.192665 32.32476,20.889966 33.202535,20.265245 C 34.084887,19.640527 34.789092,18.768498 35.299219,17.699385 C 35.813919,16.630281 36.061639,15.474873 36.06165,14.206105 C 36.061639,13.36242 35.933183,12.538048 35.680435,11.732987 C 35.427662,10.921505 35.064471,10.195029 34.600325,9.5380947 C 34.048837,8.7652584 33.411557,8.1753168 32.66248,7.7759982 C 31.917976,7.370266 31.085316,7.1577327 30.184578,7.1577189 z M 30.375187,7.4977727 C 30.609557,7.4977861 30.853081,7.5737829 31.105849,7.6832562 C 31.358602,7.7927571 31.579952,7.9357339 31.772976,8.116052 C 32.163597,8.4574066 32.482034,8.9211159 32.757783,9.5071807 C 33.033512,10.08683 33.246073,10.761784 33.393143,11.547503 C 33.540192,12.333243 33.615508,13.180801 33.615518,14.082449 C 33.615508,15.473585 33.473665,16.688245 33.202535,17.699385 C 32.935978,18.710533 32.5644,19.4705 32.058887,20.017933 C 31.557956,20.558928 30.960028,20.821698 30.279883,20.821697 C 29.778951,20.821697 29.322866,20.667128 28.913861,20.357987 C 28.504843,20.048848 28.159634,19.614766 27.865518,19.028687 C 27.571392,18.436171 27.354639,17.738031 27.198391,16.926535 C 27.042135,16.108609 26.944244,15.197935 26.944247,14.206105 C 26.944244,13.413943 27.006575,12.662992 27.103087,11.980299 C 27.204188,11.291184 27.354818,10.679347 27.547838,10.125461 C 27.745446,9.5651556 27.97099,9.0782619 28.246733,8.6725036 C 28.499488,8.2989726 28.800348,8.0065778 29.168004,7.8069122 C 29.540245,7.6008323 29.956976,7.497786 30.375187,7.4977727 z M 13.061651,7.6832562 L 21.797839,7.6832562 L 21.797839,8.054224 L 21.416623,8.054224 C 20.562851,8.0542368 19.920874,8.2422967 19.510545,8.6415896 C 19.100202,9.040907 18.906947,9.6591866 18.906954,10.496429 L 18.906954,18.348579 C 18.906948,19.179395 19.100202,19.797672 19.510545,20.203417 C 19.927492,20.602723 20.569469,20.821697 21.416623,20.821697 L 21.797839,20.821697 L 21.797839,21.192665 L 13.061651,21.192665 L 13.061651,20.821697 L 13.442866,20.821697 C 14.296629,20.821697 14.938604,20.602723 15.348943,20.203417 C 15.765894,19.797672 15.984299,19.179395 15.984303,18.348579 C 15.984299,17.968598 15.984299,17.63112 15.984303,17.328417 C 15.984299,17.025722 15.984299,16.739768 15.984303,16.462826 C 15.984299,16.185894 15.984299,15.780148 15.984303,15.226267 C 15.984299,12.959251 15.984299,11.262847 15.984303,10.187289 C 15.931352,9.7622323 15.842666,9.4492285 15.730158,9.1980409 C 15.624263,8.9468769 15.472041,8.7163114 15.253639,8.5488476 C 14.856538,8.2075188 14.237063,8.0542379 13.442866,8.054224 L 13.061651,8.054224 L 13.061651,7.6832562 z"
         id="path3549"
         clip-path="url(#clipPath3545)"
         transform="translate(0.9585694,-0.2212084)" />
      <path
         style="fill:#00ff00;fill-opacity:1;stroke:none;stroke-width:1.75100005;stroke-linejoin:round;stroke-miterlimit:4;stroke-dasharray:none"
         d="M 5.8185568,6.5394393 L 5.8185568,6.9104071 L 5.9773965,6.8176651 L 17.477396,32.538095 L 19.542313,27.344547 L 23.195628,52.539439 L 23.418004,52.539439 L 28.977397,52.539439 L 40.540932,26.849923 L 42.60585,32.012557 L 46.259164,6.8176651 L 29.644523,26.324385 L 34.918004,24.314977 L 23.418004,49.942665 L 23.418004,6.5394393 L 5.8185568,6.5394393 z M 23.195628,52.539439 L 6.5809878,33.063633 L 11.918004,35.073041 L 0.25916439,9.1980409 L 0.25916439,52.539439 L 23.195628,52.539439 z M 0.25916439,9.1980409 L 0.41800418,9.136213 L 0.25916439,9.136213 L 0.25916439,9.1980409 z M 30.184578,7.1577189 C 29.16434,7.1577326 28.230397,7.4784649 27.357231,8.116052 C 26.484057,8.7472244 25.779852,9.5999345 25.260546,10.681912 C 24.741237,11.763911 24.466346,12.925761 24.466347,14.175191 C 24.466346,15.115498 24.61238,16.032612 24.911099,16.895621 C 25.214408,17.75864 25.644124,18.501864 26.181816,19.152343 C 26.719503,19.796384 27.352989,20.312905 28.056125,20.667127 C 28.763849,21.02135 29.512004,21.192665 30.311651,21.192665 C 31.359448,21.192665 32.32476,20.889966 33.202535,20.265245 C 34.084887,19.640527 34.789092,18.768498 35.299219,17.699385 C 35.813919,16.630281 36.061639,15.474873 36.06165,14.206105 C 36.061639,13.36242 35.933183,12.538048 35.680435,11.732987 C 35.427662,10.921505 35.064471,10.195029 34.600325,9.5380947 C 34.048837,8.7652584 33.411557,8.1753168 32.66248,7.7759982 C 31.917976,7.370266 31.085316,7.1577327 30.184578,7.1577189 z M 30.375187,7.4977727 C 30.609557,7.4977861 30.853081,7.5737829 31.105849,7.6832562 C 31.358602,7.7927571 31.579952,7.9357339 31.772976,8.116052 C 32.163597,8.4574066 32.482034,8.9211159 32.757783,9.5071807 C 33.033512,10.08683 33.246073,10.761784 33.393143,11.547503 C 33.540192,12.333243 33.615508,13.180801 33.615518,14.082449 C 33.615508,15.473585 33.473665,16.688245 33.202535,17.699385 C 32.935978,18.710533 32.5644,19.4705 32.058887,20.017933 C 31.557956,20.558928 30.960028,20.821698 30.279883,20.821697 C 29.778951,20.821697 29.322866,20.667128 28.913861,20.357987 C 28.504843,20.048848 28.159634,19.614766 27.865518,19.028687 C 27.571392,18.436171 27.354639,17.738031 27.198391,16.926535 C 27.042135,16.108609 26.944244,15.197935 26.944247,14.206105 C 26.944244,13.413943 27.006575,12.662992 27.103087,11.980299 C 27.204188,11.291184 27.354818,10.679347 27.547838,10.125461 C 27.745446,9.5651556 27.97099,9.0782619 28.246733,8.6725036 C 28.499488,8.2989726 28.800348,8.0065778 29.168004,7.8069122 C 29.540245,7.6008323 29.956976,7.497786 30.375187,7.4977727 z M 13.061651,7.6832562 L 21.797839,7.6832562 L 21.797839,8.054224 L 21.416623,8.054224 C 20.562851,8.0542368 19.920874,8.2422967 19.510545,8.6415896 C 19.100202,9.040907 18.906947,9.6591866 18.906954,10.496429 L 18.906954,18.348579 C 18.906948,19.179395 19.100202,19.797672 19.510545,20.203417 C 19.927492,20.602723 20.569469,20.821697 21.416623,20.821697 L 21.797839,20.821697 L 21.797839,21.192665 L 13.061651,21.192665 L 13.061651,20.821697 L 13.442866,20.821697 C 14.296629,20.821697 14.938604,20.602723 15.348943,20.203417 C 15.765894,19.797672 15.984299,19.179395 15.984303,18.348579 C 15.984299,17.968598 15.984299,17.63112 15.984303,17.328417 C 15.984299,17.025722 15.984299,16.739768 15.984303,16.462826 C 15.984299,16.185894 15.984299,15.780148 15.984303,15.226267 C 15.984299,12.959251 15.984299,11.262847 15.984303,10.187289 C 15.931352,9.7622323 15.842666,9.4492285 15.730158,9.1980409 C 15.624263,8.9468769 15.472041,8.7163114 15.253639,8.5488476 C 14.856538,8.2075188 14.237063,8.0542379 13.442866,8.054224 L 13.061651,8.054224 L 13.061651,7.6832562 z"
         id="rect5522"
         clip-path="url(#clipPath3545)" />
    </g>
  </g>
</svg>
