<?xml version="1.0" encoding="UTF-8" standalone="no"?>
<!-- Created with Inkscape (http://www.inkscape.org/) -->
<svg
   xmlns:dc="http://purl.org/dc/elements/1.1/"
   xmlns:cc="http://creativecommons.org/ns#"
   xmlns:rdf="http://www.w3.org/1999/02/22-rdf-syntax-ns#"
   xmlns:svg="http://www.w3.org/2000/svg"
   xmlns="http://www.w3.org/2000/svg"
   xmlns:sodipodi="http://sodipodi.sourceforge.net/DTD/sodipodi-0.dtd"
   xmlns:inkscape="http://www.inkscape.org/namespaces/inkscape"
   width="48"
   height="48"
   id="svg2"
   sodipodi:version="0.32"
   inkscape:version="0.46"
   sodipodi:docname="vcard_icon.svg"
   inkscape:output_extension="org.inkscape.output.svg.inkscape"
   version="1.0"
   inkscape:export-filename="../drawable/icon.png"
   inkscape:export-xdpi="90"
   inkscape:export-ydpi="90">
  <sodipodi:namedview
     id="base"
     pagecolor="#ffffff"
     bordercolor="#666666"
     borderopacity="1.0"
     gridtolerance="10000"
     guidetolerance="10"
     objecttolerance="10"
     inkscape:pageopacity="0.0"
     inkscape:pageshadow="2"
     inkscape:zoom="6.7809355"
     inkscape:cx="-40.220018"
     inkscape:cy="-1.1488857"
     inkscape:document-units="px"
     inkscape:current-layer="g5188"
     showgrid="false"
     inkscape:window-width="1920"
     inkscape:window-height="1124"
     inkscape:window-x="0"
     inkscape:window-y="0"
     showguides="true"
     inkscape:guide-bbox="true">
    <sodipodi:guide
       orientation="0,1"
       position="-68.500873,27.87226"
       id="guide5467" />
    <sodipodi:guide
       orientation="1,0"
       position="-71.04477,31.743408"
       id="guide5533" />
    <sodipodi:guide
       orientation="1,0"
       position="-80.5936,37.310486"
       id="guide5541" />
  </sodipodi:namedview>
  <defs
     id="defs4">
    <marker
       style="overflow:visible"
       id="Arrow1Send"
       refX="0"
       refY="0"
       orient="auto"
       inkscape:stockid="Arrow1Send">
      <path
         transform="matrix(-0.2,0,0,-0.2,-1.2,0)"
         style="fill-rule:evenodd;stroke:#000000;stroke-width:1pt;marker-start:none"
         d="M 0,0 L 5,-5 L -12.5,0 L 5,5 L 0,0 z"
         id="path3227" />
    </marker>
    <marker
       style="overflow:visible"
       id="Arrow2Mend"
       refX="0"
       refY="0"
       orient="auto"
       inkscape:stockid="Arrow2Mend">
      <path
         transform="scale(-0.6,-0.6)"
         d="M 8.7185878,4.0337352 L -2.2072895,0.016013256 L 8.7185884,-4.0017078 C 6.97309,-1.6296469 6.9831476,1.6157441 8.7185878,4.0337352 z"
         style="font-size:12px;fill-rule:evenodd;stroke-width:0.625;stroke-linejoin:round"
         id="path3239" />
    </marker>
    <inkscape:perspective
       id="perspective10"
       inkscape:persp3d-origin="372.04724 : 350.78739 : 1"
       inkscape:vp_z="744.09448 : 526.18109 : 1"
       inkscape:vp_y="0 : 1000 : 0"
       inkscape:vp_x="0 : 526.18109 : 1"
       sodipodi:type="inkscape:persp3d" />
    <inkscape:perspective
       sodipodi:type="inkscape:persp3d"
       inkscape:vp_x="0 : 526.18109 : 1"
       inkscape:vp_y="0 : 1000 : 0"
       inkscape:vp_z="744.09448 : 526.18109 : 1"
       inkscape:persp3d-origin="372.04724 : 350.78739 : 1"
       id="perspective2427" />
    <marker
       style="overflow:visible"
       id="Arrow1SendN"
       refX="0"
       refY="0"
       orient="auto"
       inkscape:stockid="Arrow1SendN">
      <path
         transform="matrix(-0.2,0,0,-0.2,-1.2,0)"
         style="marker-start:none;stroke:#666666;stroke-width:1pt;fill:#666666;fill-rule:evenodd"
         d="M 0,0 L 5,-5 L -12.5,0 L 5,5 L 0,0 z"
         id="path4230" />
    </marker>
    <marker
       style="overflow:visible"
       id="Arrow1SendNk"
       refX="0"
       refY="0"
       orient="auto"
       inkscape:stockid="Arrow1SendNk">
      <path
         transform="matrix(-0.2,0,0,-0.2,-1.2,0)"
         style="fill-rule:evenodd;marker-start:none;stroke:#000000;stroke-width:1pt;fill:#000000"
         d="M 0,0 L 5,-5 L -12.5,0 L 5,5 L 0,0 z"
         id="path4317" />
    </marker>
    <filter
       inkscape:collect="always"
       id="filter4977">
      <feGaussianBlur
         inkscape:collect="always"
         stdDeviation="0.4658887"
         id="feGaussianBlur4979" />
    </filter>
    <inkscape:perspective
       id="perspective5138"
       inkscape:persp3d-origin="372.04724 : 350.78739 : 1"
       inkscape:vp_z="744.09448 : 526.18109 : 1"
       inkscape:vp_y="0 : 1000 : 0"
       inkscape:vp_x="0 : 526.18109 : 1"
       sodipodi:type="inkscape:persp3d" />
    <filter
       inkscape:collect="always"
       id="filter5184"
       x="-0.061423302"
       width="1.1228466"
       y="-0.1292133"
       height="1.2584266">
      <feGaussianBlur
         inkscape:collect="always"
         stdDeviation="1.1092446"
         id="feGaussianBlur5186" />
    </filter>
    <filter
       inkscape:collect="always"
       id="filter5626">
      <feGaussianBlur
         inkscape:collect="always"
         stdDeviation="0.33537185"
         id="feGaussianBlur5628" />
    </filter>
    <filter
       inkscape:collect="always"
       id="filter5663">
      <feGaussianBlur
         inkscape:collect="always"
         stdDeviation="0.80837004"
         id="feGaussianBlur5665" />
    </filter>
  </defs>
  <metadata
     id="metadata7">
    <rdf:RDF>
      <cc:Work
         rdf:about="">
        <dc:format>image/svg+xml</dc:format>
        <dc:type
           rdf:resource="http://purl.org/dc/dcmitype/StillImage" />
      </cc:Work>
    </rdf:RDF>
  </metadata>
  <g
     id="layer1"
     inkscape:groupmode="layer"
     inkscape:label="Layer 1">
    <g
       id="g5188"
       transform="translate(0.7408356,-5.5394393)">
      <path
         style="fill:#000000;fill-opacity:1;stroke:none;stroke-width:1.75100005000000003;stroke-linejoin:round;stroke-miterlimit:4;stroke-dasharray:none;filter:url(#filter5663)"
         d="M 7.0706083,6.2065792 L 7.0706083,6.5815792 L 7.2268583,6.4878292 L 18.53936,32.487825 L 20.57061,27.237825 L 24.16436,52.706575 L 24.38311,52.706575 L 29.85186,52.706575 L 41.22686,26.737825 L 43.25811,31.956575 L 46.85186,6.4878292 L 30.50811,26.206575 L 35.69561,24.175325 L 24.38311,50.081575 L 24.38311,6.2065792 L 7.0706083,6.2065792 z M 24.16436,52.706575 L 7.8206083,33.019075 L 13.07061,35.050325 L 1.6018583,8.8940792 L 1.6018583,52.706575 L 24.16436,52.706575 z M 1.6018583,8.8940792 L 1.7581083,8.8315792 L 1.6018583,8.8315792 L 1.6018583,8.8940792 z M 31.03936,6.8315792 C 30.035756,6.8315931 29.11704,7.1558116 28.25811,7.8003292 C 27.399172,8.4383624 26.706449,9.3003408 26.19561,10.394078 C 25.684768,11.487836 25.414359,12.662313 25.41436,13.925325 C 25.414359,14.875852 25.558013,15.802934 25.85186,16.675325 C 26.150225,17.547724 26.572934,18.299026 27.10186,18.956575 C 27.63078,19.607618 28.253938,20.129753 28.94561,20.487825 C 29.641794,20.845898 30.377751,21.019075 31.16436,21.019075 C 32.195074,21.019075 33.144647,20.713086 34.00811,20.081575 C 34.876076,19.450066 35.5688,18.568557 36.07061,17.487825 C 36.576918,16.4071 36.820598,15.239133 36.82061,13.956575 C 36.820598,13.103718 36.694237,12.270386 36.44561,11.456576 C 36.196959,10.636276 35.83969,9.9019027 35.38311,9.2378292 C 34.840614,8.4565915 34.213725,7.8602379 33.47686,7.4565792 C 32.744496,7.0464366 31.925412,6.8315932 31.03936,6.8315792 z M 31.22686,7.1753292 C 31.457409,7.1753428 31.696963,7.2521656 31.94561,7.3628292 C 32.194241,7.4735196 32.411983,7.6180507 32.60186,7.8003292 C 32.986112,8.1453939 33.299357,8.6141435 33.57061,9.2065792 C 33.841843,9.7925274 34.050938,10.474818 34.19561,11.269076 C 34.340263,12.063355 34.41435,12.920125 34.41436,13.831575 C 34.41435,15.237831 34.27482,16.465694 34.00811,17.487825 C 33.745899,18.509963 33.38038,19.278191 32.88311,19.831575 C 32.390345,20.37845 31.802167,20.644076 31.13311,20.644075 C 30.640346,20.644075 30.191697,20.487826 29.78936,20.175325 C 29.387012,19.862826 29.047431,19.424025 28.75811,18.831575 C 28.46878,18.232619 28.255561,17.526891 28.10186,16.706575 C 27.948152,15.879757 27.851857,14.959185 27.85186,13.956575 C 27.851857,13.155802 27.913172,12.396688 28.00811,11.706576 C 28.107562,11.009972 28.255737,10.391485 28.44561,9.8315794 C 28.639996,9.2651844 28.861863,8.7729975 29.13311,8.3628292 C 29.381744,7.9852378 29.677699,7.6896652 30.03936,7.4878292 C 30.405532,7.2795093 30.815469,7.1753427 31.22686,7.1753292 z M 14.19561,7.3628292 L 22.78936,7.3628292 L 22.78936,7.7378292 L 22.41436,7.7378292 C 21.574508,7.7378424 20.942998,7.9279464 20.53936,8.3315792 C 20.135707,8.7352372 19.945603,9.3602367 19.94561,10.206579 L 19.94561,18.144075 C 19.945604,18.983921 20.135707,19.60892 20.53936,20.019075 C 20.949509,20.422721 21.581018,20.644075 22.41436,20.644075 L 22.78936,20.644075 L 22.78936,21.019075 L 14.19561,21.019075 L 14.19561,20.644075 L 14.57061,20.644075 C 15.410452,20.644075 16.041961,20.422721 16.44561,20.019075 C 16.855763,19.60892 17.070606,18.983921 17.07061,18.144075 C 17.070606,17.759964 17.070606,17.418818 17.07061,17.112825 C 17.070606,16.80684 17.070606,16.517777 17.07061,16.237825 C 17.070606,15.957882 17.070606,15.547726 17.07061,14.987825 C 17.070606,12.696167 17.070606,10.981327 17.07061,9.8940787 C 17.018523,9.4644031 16.931283,9.1479973 16.82061,8.8940792 C 16.71644,8.6401852 16.5667,8.4071126 16.35186,8.2378292 C 15.961233,7.8927901 15.351858,7.7378425 14.57061,7.7378292 L 14.19561,7.7378292 L 14.19561,7.3628292 z"
         id="path5641" />
      <path
         style="fill:#008000;fill-opacity:1;stroke:none;stroke-width:1.75100005;stroke-linejoin:round;stroke-miterlimit:4;stroke-dasharray:none"
         d="M 6.84375 0.75 L 6.84375 1.125 L 7 1.03125 L 18.3125 27.03125 L 20.34375 21.78125 L 23.9375 47.25 L 24.15625 47.25 L 29.625 47.25 L 41 21.28125 L 43.03125 26.5 L 46.625 1.03125 L 30.28125 20.75 L 35.46875 18.71875 L 24.15625 44.625 L 24.15625 0.75 L 6.84375 0.75 z M 23.9375 47.25 L 7.59375 27.5625 L 12.84375 29.59375 L 1.375 3.4375 L 1.375 47.25 L 23.9375 47.25 z M 1.375 3.4375 L 1.53125 3.375 L 1.375 3.375 L 1.375 3.4375 z M 30.8125 1.375 C 29.808896 1.3750139 28.89018 1.6992324 28.03125 2.34375 C 27.172312 2.9817832 26.479589 3.8437616 25.96875 4.9375 C 25.457908 6.0312593 25.187499 7.2057375 25.1875 8.46875 C 25.187499 9.4192767 25.331153 10.346359 25.625 11.21875 C 25.923365 12.091149 26.346074 12.842451 26.875 13.5 C 27.40392 14.151043 28.027078 14.673178 28.71875 15.03125 C 29.414934 15.389323 30.150891 15.5625 30.9375 15.5625 C 31.968214 15.5625 32.917787 15.256511 33.78125 14.625 C 34.649216 13.993491 35.34194 13.111982 35.84375 12.03125 C 36.350058 10.950525 36.593738 9.7825579 36.59375 8.5 C 36.593738 7.647143 36.467377 6.8138108 36.21875 6 C 35.970099 5.1796976 35.61283 4.4453235 35.15625 3.78125 C 34.613754 3.0000123 33.986865 2.4036587 33.25 2 C 32.517636 1.5898574 31.698552 1.375014 30.8125 1.375 z M 31 1.71875 C 31.230549 1.7187636 31.470103 1.7955864 31.71875 1.90625 C 31.967381 2.0169404 32.185123 2.1614715 32.375 2.34375 C 32.759252 2.6888147 33.072497 3.1575643 33.34375 3.75 C 33.614983 4.3359485 33.824078 5.0182396 33.96875 5.8125 C 34.113403 6.6067795 34.18749 7.4635497 34.1875 8.375 C 34.18749 9.7812556 34.04796 11.009119 33.78125 12.03125 C 33.519039 13.053388 33.15352 13.821616 32.65625 14.375 C 32.163485 14.921875 31.575307 15.187501 30.90625 15.1875 C 30.413486 15.1875 29.964837 15.031251 29.5625 14.71875 C 29.160152 14.406251 28.820571 13.96745 28.53125 13.375 C 28.24192 12.776044 28.028701 12.070316 27.875 11.25 C 27.721292 10.423182 27.624997 9.5026102 27.625 8.5 C 27.624997 7.6992263 27.686312 6.9401127 27.78125 6.25 C 27.880702 5.5533951 28.028877 4.9349063 28.21875 4.375 C 28.413136 3.8086052 28.635003 3.3164183 28.90625 2.90625 C 29.154884 2.5286586 29.450839 2.233086 29.8125 2.03125 C 30.178672 1.8229301 30.588609 1.7187635 31 1.71875 z M 13.96875 1.90625 L 22.5625 1.90625 L 22.5625 2.28125 L 22.1875 2.28125 C 21.347648 2.2812632 20.716138 2.4713672 20.3125 2.875 C 19.908847 3.278658 19.718743 3.9036575 19.71875 4.75 L 19.71875 12.6875 C 19.718744 13.527346 19.908847 14.152345 20.3125 14.5625 C 20.722649 14.966146 21.354158 15.1875 22.1875 15.1875 L 22.5625 15.1875 L 22.5625 15.5625 L 13.96875 15.5625 L 13.96875 15.1875 L 14.34375 15.1875 C 15.183592 15.1875 15.815101 14.966146 16.21875 14.5625 C 16.628903 14.152345 16.843746 13.527346 16.84375 12.6875 C 16.843746 12.303389 16.843746 11.962243 16.84375 11.65625 C 16.843746 11.350265 16.843746 11.061202 16.84375 10.78125 C 16.843746 10.501307 16.843746 10.091151 16.84375 9.53125 C 16.843746 7.2395916 16.843746 5.5247496 16.84375 4.4375 C 16.791663 4.0078239 16.704423 3.6914181 16.59375 3.4375 C 16.48958 3.183606 16.33984 2.9505334 16.125 2.78125 C 15.734373 2.4362109 15.124998 2.2812633 14.34375 2.28125 L 13.96875 2.28125 L 13.96875 1.90625 z "
         transform="translate(-0.7408356,5.5394393)"
         id="rect5522" />
    </g>
  </g>
  <g
     id="g3784"
     inkscape:groupmode="layer"
     inkscape:label="lorem ipsum" />
</svg>
